<svg xmlns="http://www.w3.org/2000/svg" viewBox="0 0 49 64"><path d="M49,16.84V59a5.06,5.06,0,0,1-5.07,5H5.07A5.06,5.06,0,0,1,0,59V5.05A5.06,5.06,0,0,1,5.07,0h27Z" style="fill:#cc8a00;fill-rule:evenodd"/><path d="M49,15.9V18H35.19C32.33,18,31,15.68,31,12.81V0H33.1Z" style="fill:#ffc658;fill-rule:evenodd"/><path d="M15.4,50l-.18-1.59h-.08a4.68,4.68,0,0,1-3.85,1.88,3.59,3.59,0,0,1-3.85-3.62c0-3,2.71-4.7,7.57-4.68v-.26a2.59,2.59,0,0,0-2.86-2.91,6.31,6.31,0,0,0-3.28.93l-.52-1.5a7.79,7.79,0,0,1,4.14-1.12c3.85,0,4.78,2.62,4.78,5.15V47a17.31,17.31,0,0,0,.21,3Zm-.34-6.42c-2.49,0-5.33.39-5.33,2.83a2,2,0,0,0,2.16,2.19,3.12,3.12,0,0,0,3-2.11,2.29,2.29,0,0,0,.13-.73Z" style="fill:#fff"/><path d="M21,41.34c0-1.48,0-2.76-.1-3.92h2l.08,2.47H23a3.79,3.79,0,0,1,3.49-2.76,2.57,2.57,0,0,1,.65.08v2.16a3.07,3.07,0,0,0-.78-.08,3.21,3.21,0,0,0-3.07,2.94,6.59,6.59,0,0,0-.1,1.06V50H21Z" style="fill:#fff"/><path d="M29.47,50c.05-.86.1-2.13.1-3.25V31.54h2.26v7.9h.05a4.71,4.71,0,0,1,4.29-2.31c3.12,0,5.33,2.6,5.31,6.42,0,4.5-2.84,6.74-5.64,6.74a4.51,4.51,0,0,1-4.22-2.37h-.07L31.44,50Zm2.36-5a3.77,3.77,0,0,0,.11.83,3.53,3.53,0,0,0,3.43,2.68c2.39,0,3.82-1.95,3.82-4.84,0-2.52-1.3-4.68-3.74-4.68A3.66,3.66,0,0,0,32,41.76a4.63,4.63,0,0,0-.13.93Z" style="fill:#fff"/></svg>