<svg xmlns="http://www.w3.org/2000/svg" viewBox="0 0 49 64"><path d="M49,16.84V59a5.06,5.06,0,0,1-5.07,5H5.07A5.06,5.06,0,0,1,0,59V5.05A5.06,5.06,0,0,1,5.07,0h27Z" style="fill:#d22730;fill-rule:evenodd"/><path d="M49,15.9V18H35.19C32.33,18,31,15.68,31,12.81V0H33.1Z" style="fill:#ff8da1;fill-rule:evenodd"/><path d="M21.07,31.54V46.75c0,1.12,0,2.39.1,3.25H19.12L19,47.82H19a4.65,4.65,0,0,1-4.29,2.47c-3,0-5.38-2.58-5.38-6.4,0-4.19,2.57-6.76,5.64-6.76a4.21,4.21,0,0,1,3.8,1.92h.05V31.54Zm-2.29,11a4.41,4.41,0,0,0-.1-1,3.38,3.38,0,0,0-3.31-2.66C13,38.92,11.6,41,11.6,43.79c0,2.54,1.25,4.65,3.72,4.65a3.44,3.44,0,0,0,3.36-2.73,4.37,4.37,0,0,0,.1-1Z" style="fill:#fff"/><path d="M27.41,33.88A1.34,1.34,0,0,1,26,35.28a1.36,1.36,0,0,1-1.38-1.4A1.39,1.39,0,0,1,26,32.45,1.35,1.35,0,0,1,27.41,33.88ZM24.86,50V37.42h2.29V50Z" style="fill:#fff"/><path d="M39.92,49.53a8.49,8.49,0,0,1-3.62.73c-3.79,0-6.26-2.57-6.26-6.42a6.39,6.39,0,0,1,6.76-6.68,7.5,7.5,0,0,1,3.17.65l-.52,1.76A5.34,5.34,0,0,0,36.8,39c-2.89,0-4.45,2.13-4.45,4.75,0,2.92,1.87,4.71,4.37,4.71a6.61,6.61,0,0,0,2.81-.62Z" style="fill:#fff"/></svg>