<svg xmlns="http://www.w3.org/2000/svg" viewBox="0 0 49 64"><path d="M49,16.84V59a5.06,5.06,0,0,1-5.07,5H5.07A5.06,5.06,0,0,1,0,59V5.05A5.06,5.06,0,0,1,5.07,0h27Z" style="fill:#840b55;fill-rule:evenodd"/><path d="M49,15.9V18H35.19C32.33,18,31,15.68,31,12.81V0H33.1Z" style="fill:#e93cac;fill-rule:evenodd"/><path d="M10.3,50V39.16H8.54V37.42H10.3v-.6a5.94,5.94,0,0,1,1.46-4.4,4.39,4.39,0,0,1,3.07-1.17,5.35,5.35,0,0,1,2,.37l-.31,1.76A3.55,3.55,0,0,0,15,33.1c-1.95,0-2.44,1.72-2.44,3.64v.68h3v1.74h-3V50Z" style="fill:#fff"/><path d="M24.63,50l-.18-1.59h-.08a4.68,4.68,0,0,1-3.85,1.88,3.59,3.59,0,0,1-3.85-3.62c0-3,2.71-4.7,7.57-4.68v-.26a2.59,2.59,0,0,0-2.86-2.91,6.31,6.31,0,0,0-3.28.93l-.52-1.5a7.79,7.79,0,0,1,4.14-1.12c3.85,0,4.78,2.62,4.78,5.15V47a17.31,17.31,0,0,0,.21,3Zm-.34-6.42C21.8,43.53,19,44,19,46.41a2,2,0,0,0,2.16,2.19,3.12,3.12,0,0,0,3-2.11,2.29,2.29,0,0,0,.13-.73Z" style="fill:#fff"/><path d="M37.16,50,37,48.41H36.9a4.68,4.68,0,0,1-3.85,1.88,3.59,3.59,0,0,1-3.84-3.62c0-3,2.7-4.7,7.56-4.68v-.26a2.59,2.59,0,0,0-2.86-2.91,6.25,6.25,0,0,0-3.27.93l-.52-1.5a7.75,7.75,0,0,1,4.13-1.12c3.85,0,4.78,2.62,4.78,5.15V47a18.34,18.34,0,0,0,.21,3Zm-.34-6.42c-2.49,0-5.33.39-5.33,2.83a2,2,0,0,0,2.16,2.19,3.12,3.12,0,0,0,3-2.11,2.29,2.29,0,0,0,.13-.73Z" style="fill:#fff"/></svg>