<svg xmlns="http://www.w3.org/2000/svg" viewBox="0 0 24 24"><polyline points="0.29 23.49 0.53 6.82 4.41 0.43 19.51 0.43 23.53 7 23.71 23.49" style="fill:#840b55"/><polygon points="9.49 23.49 9.49 20.98 10.4 21.59 12 20.21 13.6 21.59 14.42 21.25 14.42 23.64 9.49 23.49" style="fill:#e93cac"/><polygon points="9.49 0.43 14.42 0.43 14.55 10.79 13.6 10.24 12.02 11.5 10.4 10.22 9.64 10.66 9.49 0.43" style="fill:#e93cac"/><path d="M19.82,0H4.18L0,6.69V24H24V6.69Zm-.44.8,3.5,5.6H14.8V.8ZM12,.8h2V6.4H10V.8Zm1.57,8.66a.39.39,0,0,0-.37-.26.4.4,0,0,0-.4.4.39.39,0,0,0,.26.37l-.69.69a.4.4,0,0,0-.49-.25.39.39,0,0,0-.25.25L10.94,10a.39.39,0,0,0,.26-.37.4.4,0,0,0-.4-.4.39.39,0,0,0-.37.26h0l-.4.4V7.2h.4a.4.4,0,0,0,.8,0h1.6a.4.4,0,0,0,.8,0H14V9.83l-.4-.4ZM4.62.8H9.2V6.4H1.12ZM10,23.2V21.77l.4.4,1.6-1.6,1.6,1.6.4-.4V23.2Zm4.8,0V19.83L13.6,21,12,19.43,10.4,21,9.2,19.8v3.4H.8V7.2H9.2v4.57l1.2-1.2,1.6,1.6,1.6-1.6,1.2,1.2V7.2h8.4v16Z" style="fill:#fff"/><circle cx="12" cy="1.2" r="0.4" style="fill:#fff"/><circle cx="10.8" cy="2.4" r="0.4" style="fill:#fff"/><circle cx="10.8" cy="4.8" r="0.4" style="fill:#fff"/><circle cx="12" cy="3.6" r="0.4" style="fill:#fff"/><circle cx="13.2" cy="2.4" r="0.4" style="fill:#fff"/><circle cx="13.2" cy="4.8" r="0.4" style="fill:#fff"/><circle cx="12" cy="6" r="0.4" style="fill:#fff"/><circle cx="12" cy="8.4" r="0.4" style="fill:#fff"/><path d="M6.56,19.27V15.11H5.88v-.67h.68v-.23a2.28,2.28,0,0,1,.56-1.69,1.68,1.68,0,0,1,1.18-.45,2,2,0,0,1,.75.14l-.12.68a1.31,1.31,0,0,0-.56-.11c-.75,0-.94.66-.94,1.4v.26H8.6v.67H7.43v4.16Z" style="fill:#fff"/><path d="M12.07,19.27l-.07-.6h0a1.82,1.82,0,0,1-1.48.71A1.37,1.37,0,0,1,9,18c0-1.17,1-1.81,2.91-1.8v-.1A1,1,0,0,0,10.82,15a2.41,2.41,0,0,0-1.26.36l-.2-.58A3,3,0,0,1,11,14.33c1.48,0,1.84,1,1.84,2v1.81a6.62,6.62,0,0,0,.08,1.15Zm-.13-2.46c-1,0-2,.15-2,1.09a.78.78,0,0,0,.83.84,1.22,1.22,0,0,0,1.17-.81,1,1,0,0,0,0-.28Z" style="fill:#fff"/><path d="M16.89,19.27l-.07-.6h0a1.82,1.82,0,0,1-1.48.71A1.37,1.37,0,0,1,13.83,18c0-1.17,1-1.81,2.91-1.8v-.1A1,1,0,0,0,15.64,15a2.41,2.41,0,0,0-1.26.36l-.2-.58a3,3,0,0,1,1.59-.43c1.48,0,1.84,1,1.84,2v1.81a6.62,6.62,0,0,0,.08,1.15Zm-.13-2.46c-1,0-2.05.15-2.05,1.09a.78.78,0,0,0,.83.84,1.22,1.22,0,0,0,1.17-.81,1,1,0,0,0,.05-.28Z" style="fill:#fff"/></svg>