<svg xmlns="http://www.w3.org/2000/svg" viewBox="0 0 49 64"><path d="M49,16.84V59a5.06,5.06,0,0,1-5.07,5H5.07A5.06,5.06,0,0,1,0,59V5.05A5.06,5.06,0,0,1,5.07,0h27Z" style="fill:#5f2167;fill-rule:evenodd"/><path d="M49,15.9V18H35.19C32.33,18,31,15.68,31,12.81V0H33.1Z" style="fill:#a05eb5;fill-rule:evenodd"/><path d="M9.36,50V39.16H7.59V37.42H9.36v-.6a6,6,0,0,1,1.45-4.4,4.39,4.39,0,0,1,3.07-1.17,5.31,5.31,0,0,1,1.95.37l-.31,1.76a3.55,3.55,0,0,0-1.46-.28c-2,0-2.44,1.72-2.44,3.64v.68h3v1.74h-3V50Z" style="fill:#fff"/><path d="M16.71,40.82c0-1.3,0-2.36-.1-3.4h2l.13,2.08h.05A4.62,4.62,0,0,1,23,37.13c1.74,0,4.44,1,4.44,5.36V50H25.14V42.75c0-2-.76-3.72-2.91-3.72a3.24,3.24,0,0,0-3.07,2.34A3.07,3.07,0,0,0,19,42.43V50H16.71Z" style="fill:#fff"/><path d="M38.11,50l-.18-1.59h-.08A4.68,4.68,0,0,1,34,50.29a3.59,3.59,0,0,1-3.85-3.62c0-3,2.71-4.7,7.57-4.68v-.26a2.59,2.59,0,0,0-2.86-2.91,6.31,6.31,0,0,0-3.28.93l-.52-1.5a7.79,7.79,0,0,1,4.14-1.12c3.85,0,4.78,2.62,4.78,5.15V47a18.34,18.34,0,0,0,.21,3Zm-.34-6.42c-2.49,0-5.33.39-5.33,2.83A2,2,0,0,0,34.6,48.6a3.12,3.12,0,0,0,3-2.11,2.29,2.29,0,0,0,.13-.73Z" style="fill:#fff"/></svg>