<svg xmlns="http://www.w3.org/2000/svg" viewBox="0 0 24 24"><polyline points="0.29 23.49 0.53 6.82 4.41 0.43 19.51 0.43 23.53 7 23.71 23.49" style="fill:#5f2167"/><polygon points="9.49 23.49 9.49 20.98 10.4 21.59 12 20.21 13.6 21.59 14.42 21.25 14.42 23.64 9.49 23.49" style="fill:#a05eb5"/><polygon points="9.49 0.43 14.42 0.43 14.55 10.79 13.6 10.24 12.02 11.5 10.4 10.22 9.64 10.66 9.49 0.43" style="fill:#a05eb5"/><path d="M19.82,0H4.18L0,6.69V24H24V6.69Zm-.44.8,3.5,5.6H14.8V.8ZM12,.8h2V6.4H10V.8Zm1.57,8.66a.39.39,0,0,0-.37-.26.4.4,0,0,0-.4.4.39.39,0,0,0,.26.37l-.69.69a.4.4,0,0,0-.49-.25.39.39,0,0,0-.25.25L10.94,10a.39.39,0,0,0,.26-.37.4.4,0,0,0-.4-.4.39.39,0,0,0-.37.26h0l-.4.4V7.2h.4a.4.4,0,0,0,.8,0h1.6a.4.4,0,0,0,.8,0H14V9.83l-.4-.4ZM4.62.8H9.2V6.4H1.12ZM10,23.2V21.77l.4.4,1.6-1.6,1.6,1.6.4-.4V23.2Zm4.8,0V19.83L13.6,21,12,19.43,10.4,21,9.2,19.8v3.4H.8V7.2H9.2v4.57l1.2-1.2,1.6,1.6,1.6-1.6,1.2,1.2V7.2h8.4v16Z" style="fill:#fff"/><circle cx="12" cy="1.2" r="0.4" style="fill:#fff"/><circle cx="10.8" cy="2.4" r="0.4" style="fill:#fff"/><circle cx="10.8" cy="4.8" r="0.4" style="fill:#fff"/><circle cx="12" cy="3.6" r="0.4" style="fill:#fff"/><circle cx="13.2" cy="2.4" r="0.4" style="fill:#fff"/><circle cx="13.2" cy="4.8" r="0.4" style="fill:#fff"/><circle cx="12" cy="6" r="0.4" style="fill:#fff"/><circle cx="12" cy="8.4" r="0.4" style="fill:#fff"/><path d="M6.2,19.27V15.11H5.52v-.67H6.2v-.23a2.28,2.28,0,0,1,.56-1.69,1.68,1.68,0,0,1,1.18-.45,2,2,0,0,1,.74.14l-.12.68A1.31,1.31,0,0,0,8,12.78c-.74,0-.93.66-.93,1.4v.26H8.23v.67H7.07v4.16Z" style="fill:#fff"/><path d="M9,15.75c0-.5,0-.91,0-1.31h.78l.05.8h0a1.77,1.77,0,0,1,1.59-.91c.67,0,1.71.4,1.71,2.06v2.88h-.88V16.49c0-.78-.29-1.43-1.11-1.43A1.24,1.24,0,0,0,10,16a1.27,1.27,0,0,0-.06.41v2.9H9Z" style="fill:#fff"/><path d="M17.25,19.27l-.07-.6h0a1.8,1.8,0,0,1-1.47.71A1.37,1.37,0,0,1,14.2,18c0-1.17,1-1.81,2.9-1.8v-.1A1,1,0,0,0,16,15a2.4,2.4,0,0,0-1.25.36l-.2-.58a3,3,0,0,1,1.58-.43c1.48,0,1.84,1,1.84,2v1.81a6.62,6.62,0,0,0,.08,1.15Zm-.13-2.46c-.95,0-2,.15-2,1.09a.78.78,0,0,0,.83.84,1.2,1.2,0,0,0,1.16-.81,1,1,0,0,0,.05-.28Z" style="fill:#fff"/></svg>