<svg xmlns="http://www.w3.org/2000/svg" viewBox="0 0 24 23"><path d="M22.5,5H22V4.5A1.45,1.45,0,0,0,20.6,3H12V2.5A1.5,1.5,0,0,0,10.5,1h-9A1.5,1.5,0,0,0,0,2.5v20A1.5,1.5,0,0,0,1.5,24h21A1.5,1.5,0,0,0,24,22.5V6.5A1.5,1.5,0,0,0,22.5,5ZM12,4h8.5a.45.45,0,0,1,.5.39V5H12ZM23,22.5a.5.5,0,0,1-.5.5H1.5a.5.5,0,0,1-.5-.5V2.5A.5.5,0,0,1,1.5,2h9a.5.5,0,0,1,.5.5V5H6V6H22.5a.5.5,0,0,1,.5.5Z" transform="translate(0 -1)"/><polyline points="13.37 12.39 16.68 9.08 20 12.39" style="fill:none;stroke:#000;stroke-linecap:round;stroke-linejoin:round;stroke-width:2px"/><path d="M9.38,20.69H14A2.65,2.65,0,0,0,16.68,18v-8" transform="translate(0 -1)" style="fill:none;stroke:#000;stroke-linecap:round;stroke-linejoin:round;stroke-width:2px"/></svg>