<svg xmlns="http://www.w3.org/2000/svg" viewBox="0 0 24 24"><polyline points="0.29 23.49 0.53 6.82 4.41 0.43 19.51 0.43 23.53 7 23.71 23.49" style="fill:#007864"/><polygon points="9.49 23.49 9.49 20.98 10.4 21.59 12 20.21 13.6 21.59 14.42 21.25 14.42 23.64 9.49 23.49" style="fill:#7ce0d3"/><polygon points="9.49 0.43 14.42 0.43 14.55 10.79 13.6 10.24 12.02 11.5 10.4 10.22 9.64 10.66 9.49 0.43" style="fill:#7ce0d3"/><path d="M19.82,0H4.18L0,6.69V24H24V6.69Zm-.44.8,3.5,5.6H14.8V.8ZM12,.8h2V6.4H10V.8Zm1.57,8.66a.39.39,0,0,0-.37-.26.4.4,0,0,0-.4.4.39.39,0,0,0,.26.37l-.69.69a.4.4,0,0,0-.49-.25.39.39,0,0,0-.25.25L10.94,10a.39.39,0,0,0,.26-.37.4.4,0,0,0-.4-.4.39.39,0,0,0-.37.26h0l-.4.4V7.2h.4a.4.4,0,0,0,.8,0h1.6a.4.4,0,0,0,.8,0H14V9.83l-.4-.4ZM4.62.8H9.2V6.4H1.12ZM10,23.2V21.77l.4.4,1.6-1.6,1.6,1.6.4-.4V23.2Zm4.8,0V19.83L13.6,21,12,19.43,10.4,21,9.2,19.8v3.4H.8V7.2H9.2v4.57l1.2-1.2,1.6,1.6,1.6-1.6,1.2,1.2V7.2h8.4v16Z" style="fill:#fff"/><circle cx="12" cy="1.2" r="0.4" style="fill:#fff"/><circle cx="10.8" cy="2.4" r="0.4" style="fill:#fff"/><circle cx="10.8" cy="4.8" r="0.4" style="fill:#fff"/><circle cx="12" cy="3.6" r="0.4" style="fill:#fff"/><circle cx="13.2" cy="2.4" r="0.4" style="fill:#fff"/><circle cx="13.2" cy="4.8" r="0.4" style="fill:#fff"/><circle cx="12" cy="6" r="0.4" style="fill:#fff"/><circle cx="12" cy="8.4" r="0.4" style="fill:#fff"/><path d="M5.56,13.05v1.39H6.82v.67H5.56v2.61c0,.6.17.94.66.94a1.87,1.87,0,0,0,.51-.07l0,.66a2.12,2.12,0,0,1-.78.13A1.19,1.19,0,0,1,5,19a1.75,1.75,0,0,1-.34-1.25V15.11H4v-.67H4.7V13.28Z" style="fill:#fff"/><path d="M7.81,16c0-.57,0-1.06,0-1.51h.77l0,1h0A1.45,1.45,0,0,1,10,14.33a1,1,0,0,1,.25,0v.83a1.32,1.32,0,0,0-.3,0,1.23,1.23,0,0,0-1.18,1.13,2.48,2.48,0,0,0,0,.41v2.57H7.81Z" style="fill:#fff"/><path d="M11.47,17a1.55,1.55,0,0,0,1.66,1.68,3.35,3.35,0,0,0,1.34-.25l.15.63a4.1,4.1,0,0,1-1.61.3,2.25,2.25,0,0,1-2.38-2.44,2.35,2.35,0,0,1,2.27-2.61,2.05,2.05,0,0,1,2,2.28,3.32,3.32,0,0,1,0,.41Zm2.58-.63A1.25,1.25,0,0,0,12.83,15a1.46,1.46,0,0,0-1.35,1.43Z" style="fill:#fff"/><path d="M16.48,17a1.55,1.55,0,0,0,1.66,1.68,3.35,3.35,0,0,0,1.34-.25l.15.63a4.1,4.1,0,0,1-1.61.3,2.25,2.25,0,0,1-2.38-2.44,2.35,2.35,0,0,1,2.27-2.61,2.05,2.05,0,0,1,2,2.28,3.32,3.32,0,0,1,0,.41Zm2.58-.63A1.25,1.25,0,0,0,17.84,15a1.46,1.46,0,0,0-1.35,1.43Z" style="fill:#fff"/></svg>