<svg xmlns="http://www.w3.org/2000/svg" viewBox="0 0 49 64"><path d="M49,16.84V59a5.06,5.06,0,0,1-5.07,5H5.07A5.06,5.06,0,0,1,0,59V5.05A5.06,5.06,0,0,1,5.07,0h27Z" style="fill:#007864;fill-rule:evenodd"/><path d="M49,15.9V18H35.19C32.33,18,31,15.68,31,12.81V0H33.1Z" style="fill:#7ce0d3;fill-rule:evenodd"/><path d="M7.7,33.8v3.62H11v1.74H7.7v6.78c0,1.56.45,2.45,1.72,2.45a5,5,0,0,0,1.33-.16l.1,1.72a5.63,5.63,0,0,1-2,.31,3.2,3.2,0,0,1-2.47-1A4.68,4.68,0,0,1,5.47,46V39.16H3.52V37.42H5.47v-3Z" style="fill:#fff"/><path d="M13.55,41.34c0-1.48,0-2.76-.1-3.92h2l.08,2.47h.1a3.79,3.79,0,0,1,3.49-2.76,2.57,2.57,0,0,1,.65.08v2.16a3.07,3.07,0,0,0-.78-.08,3.21,3.21,0,0,0-3.07,2.94,6.59,6.59,0,0,0-.1,1.06V50H13.55Z" style="fill:#fff"/><path d="M23.07,44.12c.05,3.1,2,4.37,4.32,4.37a8.19,8.19,0,0,0,3.48-.65l.39,1.64a10.27,10.27,0,0,1-4.19.78c-3.87,0-6.18-2.55-6.18-6.34s2.23-6.79,5.9-6.79c4.11,0,5.2,3.61,5.2,5.93a7.64,7.64,0,0,1-.08,1.06Zm6.71-1.63c0-1.46-.6-3.72-3.17-3.72-2.32,0-3.33,2.13-3.51,3.72Z" style="fill:#fff"/><path d="M36.1,44.12c0,3.1,2,4.37,4.31,4.37a8.21,8.21,0,0,0,3.49-.65l.39,1.64a10.31,10.31,0,0,1-4.19.78c-3.87,0-6.19-2.55-6.19-6.34s2.24-6.79,5.9-6.79c4.11,0,5.2,3.61,5.2,5.93a10.23,10.23,0,0,1-.07,1.06Zm6.7-1.63c0-1.46-.59-3.72-3.17-3.72-2.31,0-3.33,2.13-3.51,3.72Z" style="fill:#fff"/></svg>