<svg xmlns="http://www.w3.org/2000/svg" viewBox="0 0 49 64"><path d="M49,16.84V59a5.06,5.06,0,0,1-5.07,5H5.07A5.06,5.06,0,0,1,0,59V5.05A5.06,5.06,0,0,1,5.07,0h27Z" style="fill:#003b49;fill-rule:evenodd"/><path d="M49,15.9V18H35.19C32.33,18,31,15.68,31,12.81V0H33.1Z" style="fill:#59cbe8;fill-rule:evenodd"/><path d="M13.45,33.8v3.62h3.28v1.74H13.45v6.78c0,1.56.44,2.45,1.72,2.45a4.93,4.93,0,0,0,1.32-.16L16.6,50a5.71,5.71,0,0,1-2,.31,3.17,3.17,0,0,1-2.47-1A4.68,4.68,0,0,1,11.21,46V39.16h-2V37.42h2v-3Z" style="fill:#fff"/><path d="M19,47.66a6,6,0,0,0,3,.91c1.67,0,2.45-.83,2.45-1.87S23.8,45,22.11,44.38c-2.26-.8-3.33-2.05-3.33-3.56,0-2,1.64-3.69,4.34-3.69a6.27,6.27,0,0,1,3.1.78l-.58,1.66a4.89,4.89,0,0,0-2.57-.72c-1.35,0-2.11.77-2.11,1.71s.76,1.51,2.4,2.13c2.18.84,3.3,1.93,3.3,3.8,0,2.21-1.72,3.77-4.71,3.77a7.14,7.14,0,0,1-3.53-.86Z" style="fill:#fff"/><path d="M30.48,37.42,33,44.49a30.92,30.92,0,0,1,1,3.22H34c.29-1,.65-2.08,1.07-3.22l2.44-7.07h2.39L35,50H32.82L28,37.42Z" style="fill:#fff"/></svg>