<svg xmlns="http://www.w3.org/2000/svg" viewBox="0 0 24 24"><polyline points="0.29 23.49 0.53 6.82 4.41 0.43 19.51 0.43 23.53 7 23.71 23.49" style="fill:#003b49"/><polygon points="9.49 23.49 9.49 20.98 10.4 21.59 12 20.21 13.6 21.59 14.42 21.25 14.42 23.64 9.49 23.49" style="fill:#59cbe8"/><polygon points="9.49 0.43 14.42 0.43 14.55 10.79 13.6 10.24 12.02 11.5 10.4 10.22 9.64 10.66 9.49 0.43" style="fill:#59cbe8"/><path d="M19.82,0H4.18L0,6.69V24H24V6.69Zm-.44.8,3.5,5.6H14.8V.8ZM12,.8h2V6.4H10V.8Zm1.57,8.66a.39.39,0,0,0-.37-.26.4.4,0,0,0-.4.4.39.39,0,0,0,.26.37l-.69.69a.4.4,0,0,0-.49-.25.39.39,0,0,0-.25.25L10.94,10a.39.39,0,0,0,.26-.37.4.4,0,0,0-.4-.4.39.39,0,0,0-.37.26h0l-.4.4V7.2h.4a.4.4,0,0,0,.8,0h1.6a.4.4,0,0,0,.8,0H14V9.83l-.4-.4ZM4.62.8H9.2V6.4H1.12ZM10,23.2V21.77l.4.4,1.6-1.6,1.6,1.6.4-.4V23.2Zm4.8,0V19.83L13.6,21,12,19.43,10.4,21,9.2,19.8v3.4H.8V7.2H9.2v4.57l1.2-1.2,1.6,1.6,1.6-1.6,1.2,1.2V7.2h8.4v16Z" style="fill:#fff"/><circle cx="12" cy="1.2" r="0.4" style="fill:#fff"/><circle cx="10.8" cy="2.4" r="0.4" style="fill:#fff"/><circle cx="10.8" cy="4.8" r="0.4" style="fill:#fff"/><circle cx="12" cy="3.6" r="0.4" style="fill:#fff"/><circle cx="13.2" cy="2.4" r="0.4" style="fill:#fff"/><circle cx="13.2" cy="4.8" r="0.4" style="fill:#fff"/><circle cx="12" cy="6" r="0.4" style="fill:#fff"/><circle cx="12" cy="8.4" r="0.4" style="fill:#fff"/><path d="M7.77,13.05v1.39H9v.67H7.77v2.61c0,.6.17.94.66.94a1.87,1.87,0,0,0,.51-.07l0,.66a2.12,2.12,0,0,1-.78.13A1.19,1.19,0,0,1,7.25,19a1.75,1.75,0,0,1-.34-1.25V15.11H6.16v-.67h.75V13.28Z" style="fill:#fff"/><path d="M9.9,18.38a2.41,2.41,0,0,0,1.16.34c.64,0,.94-.31.94-.72s-.25-.64-.9-.88c-.87-.31-1.28-.79-1.28-1.37a1.49,1.49,0,0,1,1.67-1.42,2.42,2.42,0,0,1,1.19.3l-.22.64a1.88,1.88,0,0,0-1-.28c-.52,0-.81.3-.81.66s.29.58.92.82c.84.32,1.27.74,1.27,1.46s-.66,1.45-1.81,1.45A2.66,2.66,0,0,1,9.68,19Z" style="fill:#fff"/><path d="M14.32,14.44l.95,2.72a12.45,12.45,0,0,1,.39,1.24h0c.11-.4.25-.8.41-1.24L17,14.44H18l-1.9,4.83h-.84l-1.84-4.83Z" style="fill:#fff"/></svg>