<svg xmlns="http://www.w3.org/2000/svg" viewBox="0 0 49 64"><path d="M49,16.84V59a5.06,5.06,0,0,1-5.07,5H5.07A5.06,5.06,0,0,1,0,59V5.05A5.06,5.06,0,0,1,5.07,0h27Z" style="fill:#545859;fill-rule:evenodd"/><path d="M49,15.9V18H35.19C32.33,18,31,15.68,31,12.81V0H33.1Z" style="fill:#b2b4b2;fill-rule:evenodd"/><path d="M14.36,33.8v3.62h3.28v1.74H14.36v6.78c0,1.56.44,2.45,1.72,2.45a4.93,4.93,0,0,0,1.32-.16L17.51,50a5.71,5.71,0,0,1-2,.31,3.17,3.17,0,0,1-2.47-1A4.68,4.68,0,0,1,12.12,46V39.16H10.17V37.42h1.95v-3Z" style="fill:#fff"/><path d="M21.28,37.42l1.79,2.7c.47.7.86,1.35,1.27,2.05h.08c.42-.75.83-1.4,1.25-2.08l1.77-2.67h2.47L25.62,43.5,30,50h-2.6l-1.85-2.83c-.49-.73-.91-1.43-1.35-2.19h0c-.42.76-.86,1.43-1.33,2.19L21,50H18.52L23,43.58l-4.26-6.16Z" style="fill:#fff"/><path d="M35.34,33.8v3.62h3.28v1.74H35.34v6.78c0,1.56.44,2.45,1.72,2.45a4.87,4.87,0,0,0,1.32-.16L38.49,50a5.67,5.67,0,0,1-2,.31,3.18,3.18,0,0,1-2.47-1A4.68,4.68,0,0,1,33.11,46V39.16H31.16V37.42h1.95v-3Z" style="fill:#fff"/></svg>