<svg xmlns="http://www.w3.org/2000/svg" viewBox="0 0 24 24"><polyline points="0.29 23.49 0.53 6.82 4.41 0.43 19.51 0.43 23.53 7 23.71 23.49" style="fill:#185b37"/><polygon points="9.49 23.49 9.49 20.98 10.4 21.59 12 20.21 13.6 21.59 14.42 21.25 14.42 23.64 9.49 23.49" style="fill:#33c481"/><polygon points="9.49 0.43 14.42 0.43 14.55 10.79 13.6 10.24 12.02 11.5 10.4 10.22 9.64 10.66 9.49 0.43" style="fill:#33c481"/><path d="M19.82,0H4.18L0,6.69V24H24V6.69Zm-.44.8,3.5,5.6H14.8V.8ZM12,.8h2V6.4H10V.8Zm1.57,8.66a.39.39,0,0,0-.37-.26.4.4,0,0,0-.4.4.39.39,0,0,0,.26.37l-.69.69a.4.4,0,0,0-.49-.25.39.39,0,0,0-.25.25L10.94,10a.39.39,0,0,0,.26-.37.4.4,0,0,0-.4-.4.39.39,0,0,0-.37.26h0l-.4.4V7.2h.4a.4.4,0,0,0,.8,0h1.6a.4.4,0,0,0,.8,0H14V9.83l-.4-.4ZM4.62.8H9.2V6.4H1.12ZM10,23.2V21.77l.4.4,1.6-1.6,1.6,1.6.4-.4V23.2Zm4.8,0V19.83L13.6,21,12,19.43,10.4,21,9.2,19.8v3.4H.8V7.2H9.2v4.57l1.2-1.2,1.6,1.6,1.6-1.6,1.2,1.2V7.2h8.4v16Z" style="fill:#fff"/><circle cx="12" cy="1.2" r="0.4" style="fill:#fff"/><circle cx="10.8" cy="2.4" r="0.4" style="fill:#fff"/><circle cx="10.8" cy="4.8" r="0.4" style="fill:#fff"/><circle cx="12" cy="3.6" r="0.4" style="fill:#fff"/><circle cx="13.2" cy="2.4" r="0.4" style="fill:#fff"/><circle cx="13.2" cy="4.8" r="0.4" style="fill:#fff"/><circle cx="12" cy="6" r="0.4" style="fill:#fff"/><circle cx="12" cy="8.4" r="0.4" style="fill:#fff"/><path d="M15.17,20H8.06a.87.87,0,0,1-.86-.86v-7a.87.87,0,0,1,.86-.86h7.11a.86.86,0,0,1,.85.86v7A.85.85,0,0,1,15.17,20Z" style="fill:#17864c"/><path d="M12.62,18.06l-.52-.95c-.22-.38-.35-.63-.5-.91h0c-.12.28-.25.53-.45.91l-.47.95h-1l1.44-2.42L9.7,13.25h1l.52,1c.16.3.28.54.4.81h0c.13-.3.23-.51.39-.81l.52-1h1L12.18,15.6l1.48,2.46Z" style="fill:#fff"/></svg>